0
SECTION
2
HEADER
9
$ACADVER
1
AC1006
0
ENDSEC
0
SECTION
2
TABLES
0
TABLE
2
LAYER
70
16
0
LAYER
70
0
62
1
6
CONTINUOUS
2
L0D0_0
0
LAYER
70
0
62
2
6
CONTINUOUS
2
L0D0_0
0
LAYER
70
0
62
3
6
CONTINUOUS
2
L5D1_BC_DPC
0
LAYER
70
0
62
4
6
CONTINUOUS
2
L10D1_BC_TR
0
LAYER
70
0
62
5
6
CONTINUOUS
2
L40D1_BC_EL
0
LAYER
70
0
62
6
6
CONTINUOUS
2
L4D1_BC_N1
0
LAYER
70
0
62
7
6
CONTINUOUS
2
L39D0_PEL
0
LAYER
70
0
62
8
6
CONTINUOUS
2
L6D1_BC_RM
0
LAYER
70
0
62
9
6
CONTINUOUS
2
L16D1_BC_RHRW
0
LAYER
70
0
62
10
6
CONTINUOUS
2
L51D1_BC_EL1
0
LAYER
70
0
62
11
6
CONTINUOUS
2
L39D1_PEL_IN
0
LAYER
70
0
62
12
6
CONTINUOUS
2
L52D1_BC_EL2
0
LAYER
70
0
62
13
6
CONTINUOUS
2
L49D0_DIEL_GaAs
0
LAYER
70
0
62
14
6
CONTINUOUS
2
L48D0_PORT_BACK
0
LAYER
70
0
62
15
6
CONTINUOUS
2
L61D0_SPLIT_1
0
LAYER
70
0
62
16
6
CONTINUOUS
2
L62D0_BC_STRIP
0
ENDTAB
0
ENDSEC
0
SECTION
2
BLOCKS
0
BLOCK
2
STUB_Gate_3
70
0
10
0
20
0
0
ENDBLK
0
BLOCK
2
STUB_Drain_2
70
0
10
0
20
0
0
ENDBLK
0
BLOCK
2
STUB_Gate_bias_1
70
0
10
0
20
0
0
ENDBLK
0
BLOCK
2
RFPAD_nowire
70
0
10
0
20
0
0
ENDBLK
0
BLOCK
2
stub_lambda_2_1
70
0
10
0
20
0
0
ENDBLK
0
BLOCK
2
STUB_Drain_3
70
0
10
0
20
0
0
ENDBLK
0
BLOCK
2
STUB_Drain_1
70
0
10
0
20
0
0
ENDBLK
0
BLOCK
2
DCPAD_DRAIN
70
0
10
0
20
0
0
ENDBLK
0
BLOCK
2
DCPAD_GATE
70
0
10
0
20
0
0
ENDBLK
0
BLOCK
2
ISMN_2
70
0
10
0
20
0
0
INSERT
8
0
2
STUB_Gate_3
10
1642.72
20
77.88
41
1
42
1
50
270
0
INSERT
8
0
2
STUB_Drain_2
10
2197.84
20
-948.51
41
1
42
1
50
180
0
POLYLINE
8
L6D1_BC_RM
70
1
40
0
41
0
66
1
0
VERTEX
8
L6D1_BC_RM
10
859.05
20
-225.41
0
VERTEX
8
L6D1_BC_RM
10
859.05
20
-96.51
0
VERTEX
8
L6D1_BC_RM
10
958.38
20
-96.51
0
VERTEX
8
L6D1_BC_RM
10
958.38
20
-225.41
0
SEQEND
0
ENDBLK
0
BLOCK
2
IMN
70
0
10
0
20
0
0
INSERT
8
0
2
STUB_Gate_bias_1
10
-125.84
20
428.2
41
1
42
-1
50
0
0
INSERT
8
0
2
RFPAD_nowire
10
2.95
20
29.99
41
1
42
1
50
0
0
INSERT
8
0
2
stub_lambda_2_1
10
-147.61
20
981.43
41
1
42
1
50
270
0
ENDBLK
0
BLOCK
2
OMN
70
0
10
0
20
0
0
INSERT
8
0
2
STUB_Drain_3
10
-1050.53
20
-874.48
41
1
42
-1
50
0
0
INSERT
8
0
2
RFPAD_nowire
10
-373.32
20
-70.21
41
1
42
1
50
180
0
ENDBLK
0
BLOCK
2
ISMN_1
70
0
10
0
20
0
0
INSERT
8
0
2
STUB_Drain_1
10
440.39
20
1077.7
41
1
42
1
50
270
0
ENDBLK
0
BLOCK
2
New_GDS_Cell
70
0
10
0
20
0
0
ENDBLK
0
BLOCK
2
DC_feed_DRAIN
70
0
10
0
20
0
0
INSERT
8
0
2
DCPAD_DRAIN
10
-714.81
20
475.04
41
1
42
1
50
0
0
INSERT
8
0
2
DCPAD_DRAIN
10
-714.81
20
475.04
41
1
42
1
50
0
0
INSERT
8
0
2
DCPAD_DRAIN
10
-714.81
20
475.04
41
1
42
1
50
0
0
POLYLINE
8
L6D1_BC_RM
70
1
40
0
41
0
66
1
0
VERTEX
8
L6D1_BC_RM
10
-20.06
20
224.46
0
VERTEX
8
L6D1_BC_RM
10
-20.06
20
252.16
0
VERTEX
8
L6D1_BC_RM
10
14.94
20
252.16
0
VERTEX
8
L6D1_BC_RM
10
14.94
20
224.46
0
SEQEND
0
POLYLINE
8
L6D1_BC_RM
70
1
40
0
41
0
66
1
0
VERTEX
8
L6D1_BC_RM
10
-20.06
20
224.46
0
VERTEX
8
L6D1_BC_RM
10
-20.06
20
252.16
0
VERTEX
8
L6D1_BC_RM
10
14.94
20
252.16
0
VERTEX
8
L6D1_BC_RM
10
14.94
20
224.46
0
SEQEND
0
ENDBLK
0
BLOCK
2
DC_feed_GATE
70
0
10
0
20
0
0
INSERT
8
0
2
DCPAD_GATE
10
-952.92
20
1051.52
41
1
42
-1
50
180
0
INSERT
8
0
2
DCPAD_GATE
10
-952.92
20
1051.52
41
1
42
-1
50
180
0
INSERT
8
0
2
DCPAD_GATE
10
-952.92
20
1051.52
41
1
42
-1
50
180
0
ENDBLK
0
BLOCK
2
RFIN
70
0
10
0
20
0
0
ENDBLK
0
BLOCK
2
GND
70
0
10
0
20
0
0
ENDBLK
0
BLOCK
2
VGG
70
0
10
0
20
0
0
ENDBLK
0
BLOCK
2
VDD
70
0
10
0
20
0
0
ENDBLK
0
BLOCK
2
Stage_1_2_3_LNA_layout
70
0
10
0
20
0
0
INSERT
8
0
2
ISMN_2
10
303.64
20
-3.48
41
1
42
-1
50
0
0
INSERT
8
0
2
IMN
10
125.84
20
428.2
41
1
42
-1
50
0
0
INSERT
8
0
2
OMN
10
2412.43
20
215.83
41
1
42
-1
50
0
0
INSERT
8
0
2
ISMN_1
10
805.54
20
295.38
41
1
42
-1
50
180
0
INSERT
8
0
2
New_GDS_Cell
10
2560
20
341
41
1
42
1
50
180
0
INSERT
8
0
2
New_GDS_Cell
10
-392
20
341
41
1
42
1
50
0
0
INSERT
8
0
2
DC_feed_DRAIN
10
1740
20
928
41
1
42
-1
50
0
0
INSERT
8
0
2
DC_feed_GATE
10
1740
20
928
41
1
42
-1
50
0
0
INSERT
8
0
2
RFIN
10
-252
20
237
41
1
42
1
50
0
0
INSERT
8
0
2
GND
10
1052
20
755
41
1
42
1
50
0
0
INSERT
8
0
2
GND
10
946
20
-112
41
1
42
1
50
0
0
INSERT
8
0
2
VGG
10
301
20
-109
41
1
42
1
50
0
0
INSERT
8
0
2
VDD
10
1466
20
669
41
1
42
1
50
0
0
ENDBLK
0
ENDSEC
0
SECTION
2
ENTITIES
0
INSERT
8
0
2
Stage_1_2_3_LNA_layout
10
0
20
0
41
1
42
1
50
0
0
POLYLINE
8
L10D1_BC_TR
70
1
40
0
41
0
66
1
0
VERTEX
8
L10D1_BC_TR
10
2176.2
20
140.98
0
VERTEX
8
L10D1_BC_TR
10
2176.2
20
160.98
0
VERTEX
8
L10D1_BC_TR
10
2196.2
20
160.98
0
VERTEX
8
L10D1_BC_TR
10
2196.2
20
140.98
0
SEQEND
0
POLYLINE
8
L10D1_BC_TR
70
1
40
0
41
0
66
1
0
VERTEX
8
L10D1_BC_TR
10
125.46
20
741.65
0
VERTEX
8
L10D1_BC_TR
10
125.46
20
761.65
0
VERTEX
8
L10D1_BC_TR
10
145.46
20
761.65
0
VERTEX
8
L10D1_BC_TR
10
145.46
20
741.65
0
SEQEND
0
POLYLINE
8
L10D1_BC_TR
70
1
40
0
41
0
66
1
0
VERTEX
8
L10D1_BC_TR
10
652.91
20
-15.89
0
VERTEX
8
L10D1_BC_TR
10
652.91
20
4.11
0
VERTEX
8
L10D1_BC_TR
10
672.91
20
4.11
0
VERTEX
8
L10D1_BC_TR
10
672.91
20
-15.89
0
SEQEND
0
POLYLINE
8
L10D1_BC_TR
70
1
40
0
41
0
66
1
0
VERTEX
8
L10D1_BC_TR
10
1437.54
20
10.88
0
VERTEX
8
L10D1_BC_TR
10
1437.54
20
30.88
0
VERTEX
8
L10D1_BC_TR
10
1457.54
20
30.88
0
VERTEX
8
L10D1_BC_TR
10
1457.54
20
10.88
0
SEQEND
0
POLYLINE
8
L10D1_BC_TR
70
1
40
0
41
0
66
1
0
VERTEX
8
L10D1_BC_TR
10
205.82
20
65.11
0
VERTEX
8
L10D1_BC_TR
10
205.82
20
85.11
0
VERTEX
8
L10D1_BC_TR
10
225.82
20
85.11
0
VERTEX
8
L10D1_BC_TR
10
225.82
20
65.11
0
SEQEND
0
POLYLINE
8
L10D1_BC_TR
70
1
40
0
41
0
66
1
0
VERTEX
8
L10D1_BC_TR
10
898.02
20
-98.52
0
VERTEX
8
L10D1_BC_TR
10
898.02
20
-78.52
0
VERTEX
8
L10D1_BC_TR
10
918.02
20
-78.52
0
VERTEX
8
L10D1_BC_TR
10
918.02
20
-98.52
0
SEQEND
0
POLYLINE
8
L10D1_BC_TR
70
1
40
0
41
0
66
1
0
VERTEX
8
L10D1_BC_TR
10
898.02
20
-98.52
0
VERTEX
8
L10D1_BC_TR
10
898.02
20
-78.52
0
VERTEX
8
L10D1_BC_TR
10
918.02
20
-78.52
0
VERTEX
8
L10D1_BC_TR
10
918.02
20
-98.52
0
SEQEND
0
POLYLINE
8
L10D1_BC_TR
70
1
40
0
41
0
66
1
0
VERTEX
8
L10D1_BC_TR
10
898.02
20
-98.52
0
VERTEX
8
L10D1_BC_TR
10
898.02
20
-78.52
0
VERTEX
8
L10D1_BC_TR
10
918.02
20
-78.52
0
VERTEX
8
L10D1_BC_TR
10
918.02
20
-98.52
0
SEQEND
0
POLYLINE
8
L10D1_BC_TR
70
1
40
0
41
0
66
1
0
VERTEX
8
L10D1_BC_TR
10
723.73
20
566.61
0
VERTEX
8
L10D1_BC_TR
10
723.73
20
586.61
0
VERTEX
8
L10D1_BC_TR
10
743.73
20
586.61
0
VERTEX
8
L10D1_BC_TR
10
743.73
20
566.61
0
SEQEND
0
POLYLINE
8
L10D1_BC_TR
70
1
40
0
41
0
66
1
0
VERTEX
8
L10D1_BC_TR
10
1925.38
20
707.1
0
VERTEX
8
L10D1_BC_TR
10
1925.38
20
727.1
0
VERTEX
8
L10D1_BC_TR
10
1945.38
20
727.1
0
VERTEX
8
L10D1_BC_TR
10
1945.38
20
707.1
0
SEQEND
0
POLYLINE
8
L10D1_BC_TR
70
1
40
0
41
0
66
1
0
VERTEX
8
L10D1_BC_TR
10
999.21
20
566.6
0
VERTEX
8
L10D1_BC_TR
10
999.21
20
586.6
0
VERTEX
8
L10D1_BC_TR
10
1019.21
20
586.6
0
VERTEX
8
L10D1_BC_TR
10
1019.21
20
566.6
0
SEQEND
0
POLYLINE
8
L10D1_BC_TR
70
1
40
0
41
0
66
1
0
VERTEX
8
L10D1_BC_TR
10
1925.38
20
707.1
0
VERTEX
8
L10D1_BC_TR
10
1925.38
20
727.1
0
VERTEX
8
L10D1_BC_TR
10
1945.38
20
727.1
0
VERTEX
8
L10D1_BC_TR
10
1945.38
20
707.1
0
SEQEND
0
POLYLINE
8
L10D1_BC_TR
70
1
40
0
41
0
66
1
0
VERTEX
8
L10D1_BC_TR
10
999.21
20
566.6
0
VERTEX
8
L10D1_BC_TR
10
999.21
20
586.6
0
VERTEX
8
L10D1_BC_TR
10
1019.21
20
586.6
0
VERTEX
8
L10D1_BC_TR
10
1019.21
20
566.6
0
SEQEND
0
POLYLINE
8
L10D1_BC_TR
70
1
40
0
41
0
66
1
0
VERTEX
8
L10D1_BC_TR
10
1652.66
20
7.99
0
VERTEX
8
L10D1_BC_TR
10
1652.66
20
27.99
0
VERTEX
8
L10D1_BC_TR
10
1672.66
20
27.99
0
VERTEX
8
L10D1_BC_TR
10
1672.66
20
7.99
0
SEQEND
0
POLYLINE
8
L10D1_BC_TR
70
1
40
0
41
0
66
1
0
VERTEX
8
L10D1_BC_TR
10
1803.95
20
615.61
0
VERTEX
8
L10D1_BC_TR
10
1803.95
20
635.61
0
VERTEX
8
L10D1_BC_TR
10
1823.95
20
635.61
0
VERTEX
8
L10D1_BC_TR
10
1823.95
20
615.61
0
SEQEND
0
POLYLINE
8
L10D1_BC_TR
70
1
40
0
41
0
66
1
0
VERTEX
8
L10D1_BC_TR
10
-4.18
20
610.55
0
VERTEX
8
L10D1_BC_TR
10
-4.18
20
630.55
0
VERTEX
8
L10D1_BC_TR
10
15.82
20
630.55
0
VERTEX
8
L10D1_BC_TR
10
15.82
20
610.55
0
SEQEND
0
POLYLINE
8
L10D1_BC_TR
70
1
40
0
41
0
66
1
0
VERTEX
8
L10D1_BC_TR
10
2068.87
20
585.23
0
VERTEX
8
L10D1_BC_TR
10
2068.87
20
605.23
0
VERTEX
8
L10D1_BC_TR
10
2088.87
20
605.23
0
VERTEX
8
L10D1_BC_TR
10
2088.87
20
585.23
0
SEQEND
0
POLYLINE
8
L40D1_BC_EL
70
1
40
0
41
0
66
1
0
VERTEX
8
L40D1_BC_EL
10
1567.21
20
300.78
0
VERTEX
8
L40D1_BC_EL
10
1567.21
20
383.45
0
VERTEX
8
L40D1_BC_EL
10
1711.41
20
383.45
0
VERTEX
8
L40D1_BC_EL
10
1711.41
20
300.78
0
SEQEND
0
POLYLINE
8
L40D1_BC_EL
70
1
40
0
41
0
66
1
0
VERTEX
8
L40D1_BC_EL
10
1653.66
20
-35.01
0
VERTEX
8
L40D1_BC_EL
10
1653.66
20
-17.01
0
VERTEX
8
L40D1_BC_EL
10
1637.66
20
-7.01
0
VERTEX
8
L40D1_BC_EL
10
1637.66
20
42.99
0
VERTEX
8
L40D1_BC_EL
10
1687.66
20
42.99
0
VERTEX
8
L40D1_BC_EL
10
1687.66
20
-7.01
0
VERTEX
8
L40D1_BC_EL
10
1671.66
20
-17.01
0
VERTEX
8
L40D1_BC_EL
10
1871.66
20
-17.01
0
VERTEX
8
L40D1_BC_EL
10
1871.66
20
282.99
0
VERTEX
8
L40D1_BC_EL
10
1850.66
20
292.99
0
VERTEX
8
L40D1_BC_EL
10
1778.78
20
292.99
0
VERTEX
8
L40D1_BC_EL
10
1730.41
20
300.78
0
VERTEX
8
L40D1_BC_EL
10
1719.41
20
300.78
0
VERTEX
8
L40D1_BC_EL
10
1719.41
20
383.45
0
VERTEX
8
L40D1_BC_EL
10
1730.41
20
383.45
0
VERTEX
8
L40D1_BC_EL
10
1778.78
20
391.23
0
VERTEX
8
L40D1_BC_EL
10
1942.04
20
391.23
0
VERTEX
8
L40D1_BC_EL
10
1991.65
20
415.605
0
VERTEX
8
L40D1_BC_EL
10
1991.65
20
415.62
0
VERTEX
8
L40D1_BC_EL
10
2000.01
20
415.62
0
VERTEX
8
L40D1_BC_EL
10
2000.01
20
268.62
0
VERTEX
8
L40D1_BC_EL
10
1991.66
20
268.62
0
VERTEX
8
L40D1_BC_EL
10
1991.66
20
268.61
0
VERTEX
8
L40D1_BC_EL
10
1942.04
20
292.99
0
VERTEX
8
L40D1_BC_EL
10
1910.66
20
292.99
0
VERTEX
8
L40D1_BC_EL
10
1889.66
20
282.99
0
VERTEX
8
L40D1_BC_EL
10
1889.66
20
-35.01
0
SEQEND
0
POLYLINE
8
L40D1_BC_EL
70
1
40
0
41
0
66
1
0
VERTEX
8
L40D1_BC_EL
10
1160.69
20
215.93
0
VERTEX
8
L40D1_BC_EL
10
1160.69
20
227.93
0
VERTEX
8
L40D1_BC_EL
10
1162.69
20
227.93
0
VERTEX
8
L40D1_BC_EL
10
1202.73
20
273.46
0
VERTEX
8
L40D1_BC_EL
10
1202.73
20
332.49
0
VERTEX
8
L40D1_BC_EL
10
1186.24
20
332.49
0
VERTEX
8
L40D1_BC_EL
10
1166.99
20
351.73
0
VERTEX
8
L40D1_BC_EL
10
1166.99
20
466.73
0
VERTEX
8
L40D1_BC_EL
10
1127.99
20
466.73
0
VERTEX
8
L40D1_BC_EL
10
1127.99
20
351.73
0
VERTEX
8
L40D1_BC_EL
10
1108.74
20
332.49
0
VERTEX
8
L40D1_BC_EL
10
1094.09
20
332.49
0
VERTEX
8
L40D1_BC_EL
10
1024.78
20
310.61
0
VERTEX
8
L40D1_BC_EL
10
971.14
20
310.61
0
VERTEX
8
L40D1_BC_EL
10
971.14
20
310.62
0
VERTEX
8
L40D1_BC_EL
10
964.704
20
310.62
0
VERTEX
8
L40D1_BC_EL
10
964.704
20
373.62
0
VERTEX
8
L40D1_BC_EL
10
971.14
20
373.62
0
VERTEX
8
L40D1_BC_EL
10
971.14
20
373.61
0
VERTEX
8
L40D1_BC_EL
10
1024.78
20
373.61
0
VERTEX
8
L40D1_BC_EL
10
1094.09
20
351.73
0
VERTEX
8
L40D1_BC_EL
10
1108.74
20
351.73
0
VERTEX
8
L40D1_BC_EL
10
1108.74
20
466.73
0
VERTEX
8
L40D1_BC_EL
10
1127.99
20
485.98
0
VERTEX
8
L40D1_BC_EL
10
1166.99
20
485.98
0
VERTEX
8
L40D1_BC_EL
10
1186.24
20
466.73
0
VERTEX
8
L40D1_BC_EL
10
1186.24
20
351.73
0
VERTEX
8
L40D1_BC_EL
10
1242.86
20
351.73
0
VERTEX
8
L40D1_BC_EL
10
1242.86
20
423.81
0
VERTEX
8
L40D1_BC_EL
10
1262.11
20
423.81
0
VERTEX
8
L40D1_BC_EL
10
1262.11
20
351.73
0
VERTEX
8
L40D1_BC_EL
10
1291.98
20
351.73
0
VERTEX
8
L40D1_BC_EL
10
1390.34
20
386.61
0
VERTEX
8
L40D1_BC_EL
10
1401.45
20
386.61
0
VERTEX
8
L40D1_BC_EL
10
1422.45
20
396.61
0
VERTEX
8
L40D1_BC_EL
10
1422.45
20
514.61
0
VERTEX
8
L40D1_BC_EL
10
1728.45
20
514.61
0
VERTEX
8
L40D1_BC_EL
10
1728.45
20
634.602
0
VERTEX
8
L40D1_BC_EL
10
1728.44
20
634.602
0
VERTEX
8
L40D1_BC_EL
10
1728.44
20
659.84
0
VERTEX
8
L40D1_BC_EL
10
1719.94
20
669.84
0
VERTEX
8
L40D1_BC_EL
10
1717.94
20
669.84
0
VERTEX
8
L40D1_BC_EL
10
1717.94
20
681.84
0
VERTEX
8
L40D1_BC_EL
10
1756.94
20
681.84
0
VERTEX
8
L40D1_BC_EL
10
1756.94
20
669.84
0
VERTEX
8
L40D1_BC_EL
10
1754.94
20
669.84
0
VERTEX
8
L40D1_BC_EL
10
1746.44
20
659.84
0
VERTEX
8
L40D1_BC_EL
10
1746.44
20
634.61
0
VERTEX
8
L40D1_BC_EL
10
1756.45
20
634.61
0
VERTEX
8
L40D1_BC_EL
10
1766.45
20
650.61
0
VERTEX
8
L40D1_BC_EL
10
1770.45
20
650.61
0
VERTEX
8
L40D1_BC_EL
10
1770.45
20
600.61
0
VERTEX
8
L40D1_BC_EL
10
1766.45
20
600.61
0
VERTEX
8
L40D1_BC_EL
10
1756.45
20
616.61
0
VERTEX
8
L40D1_BC_EL
10
1746.45
20
616.61
0
VERTEX
8
L40D1_BC_EL
10
1746.45
20
496.61
0
VERTEX
8
L40D1_BC_EL
10
1440.45
20
496.61
0
VERTEX
8
L40D1_BC_EL
10
1440.45
20
396.61
0
VERTEX
8
L40D1_BC_EL
10
1461.45
20
386.61
0
VERTEX
8
L40D1_BC_EL
10
1506.22
20
386.61
0
VERTEX
8
L40D1_BC_EL
10
1555.21
20
367.11
0
VERTEX
8
L40D1_BC_EL
10
1559.21
20
367.11
0
VERTEX
8
L40D1_BC_EL
10
1559.21
20
317.11
0
VERTEX
8
L40D1_BC_EL
10
1555.21
20
317.11
0
VERTEX
8
L40D1_BC_EL
10
1506.22
20
297.61
0
VERTEX
8
L40D1_BC_EL
10
1390.34
20
297.61
0
VERTEX
8
L40D1_BC_EL
10
1291.98
20
332.49
0
VERTEX
8
L40D1_BC_EL
10
1221.98
20
332.49
0
VERTEX
8
L40D1_BC_EL
10
1221.98
20
273.46
0
VERTEX
8
L40D1_BC_EL
10
1262.02
20
227.93
0
VERTEX
8
L40D1_BC_EL
10
1264.02
20
227.93
0
VERTEX
8
L40D1_BC_EL
10
1264.02
20
215.93
0
SEQEND
0
POLYLINE
8
L4D1_BC_N1
70
1
40
0
41
0
66
1
0
VERTEX
8
L4D1_BC_N1
10
1402.54
20
-24.12
0
VERTEX
8
L4D1_BC_N1
10
1402.54
20
65.88
0
VERTEX
8
L4D1_BC_N1
10
1492.54
20
65.88
0
VERTEX
8
L4D1_BC_N1
10
1492.54
20
-24.12
0
SEQEND
0
POLYLINE
8
L4D1_BC_N1
70
1
40
0
41
0
66
1
0
VERTEX
8
L4D1_BC_N1
10
1158.69
20
89.03
0
VERTEX
8
L4D1_BC_N1
10
1158.69
20
101.03
0
VERTEX
8
L4D1_BC_N1
10
1266.02
20
101.03
0
VERTEX
8
L4D1_BC_N1
10
1266.02
20
89.03
0
SEQEND
0
POLYLINE
8
L4D1_BC_N1
70
1
40
0
41
0
66
1
0
VERTEX
8
L4D1_BC_N1
10
1158.69
20
213.93
0
VERTEX
8
L4D1_BC_N1
10
1158.69
20
225.93
0
VERTEX
8
L4D1_BC_N1
10
1266.02
20
225.93
0
VERTEX
8
L4D1_BC_N1
10
1266.02
20
213.93
0
SEQEND
0
POLYLINE
8
L4D1_BC_N1
70
1
40
0
41
0
66
1
0
VERTEX
8
L4D1_BC_N1
10
1565.21
20
298.78
0
VERTEX
8
L4D1_BC_N1
10
1565.21
20
385.45
0
VERTEX
8
L4D1_BC_N1
10
1728.41
20
385.45
0
VERTEX
8
L4D1_BC_N1
10
1728.41
20
298.78
0
SEQEND
0
POLYLINE
8
L4D1_BC_N1
70
1
40
0
41
0
66
1
0
VERTEX
8
L4D1_BC_N1
10
1780.45
20
592.11
0
VERTEX
8
L4D1_BC_N1
10
1780.45
20
659.11
0
VERTEX
8
L4D1_BC_N1
10
1847.45
20
659.11
0
VERTEX
8
L4D1_BC_N1
10
1847.45
20
592.11
0
SEQEND
0
POLYLINE
8
L4D1_BC_N1
70
1
40
0
41
0
66
1
0
VERTEX
8
L4D1_BC_N1
10
1715.94
20
671.84
0
VERTEX
8
L4D1_BC_N1
10
1715.94
20
683.84
0
VERTEX
8
L4D1_BC_N1
10
1758.94
20
683.84
0
VERTEX
8
L4D1_BC_N1
10
1758.94
20
671.84
0
SEQEND
0
POLYLINE
8
L4D1_BC_N1
70
1
40
0
41
0
66
1
0
VERTEX
8
L4D1_BC_N1
10
1715.94
20
695.54
0
VERTEX
8
L4D1_BC_N1
10
1715.94
20
707.54
0
VERTEX
8
L4D1_BC_N1
10
1758.94
20
707.54
0
VERTEX
8
L4D1_BC_N1
10
1758.94
20
695.54
0
SEQEND
0
POLYLINE
8
L51D1_BC_EL1
70
1
40
0
41
0
66
1
0
VERTEX
8
L51D1_BC_EL1
10
1556.21
20
317.11
0
VERTEX
8
L51D1_BC_EL1
10
1556.21
20
367.11
0
VERTEX
8
L51D1_BC_EL1
10
1570.21
20
367.11
0
VERTEX
8
L51D1_BC_EL1
10
1570.21
20
317.11
0
SEQEND
0
POLYLINE
8
L51D1_BC_EL1
70
1
40
0
41
0
66
1
0
VERTEX
8
L51D1_BC_EL1
10
1767.45
20
600.61
0
VERTEX
8
L51D1_BC_EL1
10
1767.45
20
650.61
0
VERTEX
8
L51D1_BC_EL1
10
1789.45
20
650.61
0
VERTEX
8
L51D1_BC_EL1
10
1789.45
20
600.61
0
SEQEND
0
POLYLINE
8
L52D1_BC_EL2
70
1
40
0
41
0
66
1
0
VERTEX
8
L52D1_BC_EL2
10
1556.21
20
317.11
0
VERTEX
8
L52D1_BC_EL2
10
1556.21
20
367.11
0
VERTEX
8
L52D1_BC_EL2
10
1559.21
20
367.11
0
VERTEX
8
L52D1_BC_EL2
10
1559.21
20
317.11
0
SEQEND
0
POLYLINE
8
L52D1_BC_EL2
70
1
40
0
41
0
66
1
0
VERTEX
8
L52D1_BC_EL2
10
1567.21
20
317.11
0
VERTEX
8
L52D1_BC_EL2
10
1567.21
20
367.11
0
VERTEX
8
L52D1_BC_EL2
10
1570.21
20
367.11
0
VERTEX
8
L52D1_BC_EL2
10
1570.21
20
317.11
0
SEQEND
0
POLYLINE
8
L52D1_BC_EL2
70
1
40
0
41
0
66
1
0
VERTEX
8
L52D1_BC_EL2
10
1767.45
20
600.61
0
VERTEX
8
L52D1_BC_EL2
10
1767.45
20
650.61
0
VERTEX
8
L52D1_BC_EL2
10
1770.45
20
650.61
0
VERTEX
8
L52D1_BC_EL2
10
1770.45
20
600.61
0
SEQEND
0
POLYLINE
8
L52D1_BC_EL2
70
1
40
0
41
0
66
1
0
VERTEX
8
L52D1_BC_EL2
10
1786.45
20
600.61
0
VERTEX
8
L52D1_BC_EL2
10
1786.45
20
650.61
0
VERTEX
8
L52D1_BC_EL2
10
1789.45
20
650.61
0
VERTEX
8
L52D1_BC_EL2
10
1789.45
20
600.61
0
SEQEND
0
POLYLINE
8
L49D0_DIEL_GaAs
70
1
40
0
41
0
66
1
0
VERTEX
8
L49D0_DIEL_GaAs
10
-416.51
20
-158.78
0
VERTEX
8
L49D0_DIEL_GaAs
10
-416.51
20
841.22
0
VERTEX
8
L49D0_DIEL_GaAs
10
2583.49
20
841.22
0
VERTEX
8
L49D0_DIEL_GaAs
10
2583.49
20
-158.78
0
SEQEND
0
POLYLINE
8
L48D0_PORT_BACK
70
1
40
0
41
0
66
1
0
VERTEX
8
L48D0_PORT_BACK
10
1994.209
20
159.109
0
VERTEX
8
L48D0_PORT_BACK
10
1994.209
20
511.649
0
VERTEX
8
L48D0_PORT_BACK
10
2077.298
20
511.649
0
VERTEX
8
L48D0_PORT_BACK
10
2077.298
20
159.109
0
SEQEND
0
POLYLINE
8
L48D0_PORT_BACK
70
1
40
0
41
0
66
1
0
VERTEX
8
L48D0_PORT_BACK
10
883.818
20
183.81
0
VERTEX
8
L48D0_PORT_BACK
10
883.818
20
486.272
0
VERTEX
8
L48D0_PORT_BACK
10
970.816
20
486.272
0
VERTEX
8
L48D0_PORT_BACK
10
970.816
20
183.81
0
SEQEND
0
POLYLINE
8
L61D0_SPLIT_1
70
0
40
0
41
0
66
1
0
VERTEX
8
L61D0_SPLIT_1
10
1632.097
20
841.22
0
VERTEX
8
L61D0_SPLIT_1
10
1606.628
20
-158.78
0
SEQEND
0
POLYLINE
8
L62D0_BC_STRIP
70
1
40
0
41
0
66
1
0
VERTEX
8
L62D0_BC_STRIP
10
-161.736
20
254.156
0
VERTEX
8
L62D0_BC_STRIP
10
-161.736
20
412.042
0
VERTEX
8
L62D0_BC_STRIP
10
427.445
20
412.042
0
VERTEX
8
L62D0_BC_STRIP
10
427.445
20
254.156
0
SEQEND
0
ENDSEC
0
EOF
